<?xml version="1.0" standalone="no"?>
<!DOCTYPE svg PUBLIC "-//W3C//DTD SVG 1.1//EN" "http://www.w3.org/Graphics/SVG/1.1/DTD/svg11.dtd" >
<svg xmlns="http://www.w3.org/2000/svg">
<metadata>
This is a custom SVG font generated by IcoMoon.
<iconset grid="16"></iconset>
</metadata>
<defs>
<font id="novlcons" horiz-adv-x="512" >
<font-face units-per-em="512" ascent="480" descent="-32" />
<missing-glyph horiz-adv-x="512" />
<glyph class="hidden" unicode="&#xf000;" d="M0,480L 512 -32L0 -32 z" horiz-adv-x="0" />
<glyph unicode="&#xe000;" d="M 512,382.791c-18.838-8.354-39.082-14.001-60.33-16.54c 21.686,13, 38.343,33.585, 46.186,58.115
	c-20.298-12.039-42.778-20.78-66.705-25.49c-19.16,20.415-46.461,33.17-76.673,33.17c-58.011,0-105.044-47.029-105.044-105.039
	c0-8.233, 0.929-16.25, 2.72-23.939c-87.3,4.382-164.701,46.2-216.509,109.753c-9.042-15.514-14.223-33.558-14.223-52.809
	c0-36.444, 18.544-68.596, 46.73-87.433c-17.219,0.546-33.416,5.271-47.577,13.139c-0.010-0.438-0.010-0.878-0.010-1.321
	c0-50.894, 36.209-93.348, 84.261-103c-8.813-2.4-18.094-3.686-27.674-3.686c-6.769,0-13.349,0.66-19.764,1.886
	c 13.368-41.73, 52.16-72.103, 98.126-72.948c-35.95-28.175-81.243-44.967-130.458-44.967c-8.479,0-16.84,0.497-25.058,1.47
	c 46.486-29.805, 101.701-47.197, 161.021-47.197c 193.211,0, 298.868,160.062, 298.868,298.872c0,4.554-0.103,9.084-0.305,13.59
	C 480.11,343.227, 497.918,361.727, 512,382.791z"  />
<glyph unicode="&#xe00a;" d="M 287.935-32L 192-32 L 192,224 l-64,0 l0,88.225 l 64,0.029l-0.104,51.976C 191.896,436.206, 211.413,480, 296.195,480l 70.588,0 l0-88.242 l-44.115,0 
	c-33.016,0-34.603-12.328-34.603-35.342l-0.131-44.162l 79.345,0 l-9.352-88.225L 288,224L 287.935-32z"  />
<glyph unicode="&#xe00f;" d="M 512,184.778 L 256,383.491 L 0,184.777 L 0,265.796 L 256,464.509 L 512,265.795 ZM 448,192 L 448,0 L 320,0 L 320,128 L 192,128 L 192,0 L 64,0 L 64,192 L 256,336 Z"  />
<glyph unicode="&#xe010;" d="M 466.895,174.875c-26.863,46.527-10.708,106.152, 36.076,133.244l-50.313,87.146c-14.375-8.427-31.088-13.259-48.923-13.259
	c-53.768,0-97.354,43.873-97.354,97.995L 205.752,480.001 c 0.133-16.705-4.037-33.641-12.979-49.126
	c-26.862-46.528-86.578-62.351-133.431-35.379L 9.030,308.35c 14.485-8.236, 27.025-20.294, 35.943-35.739
	c 26.819-46.454, 10.756-105.96-35.854-133.112l 50.313-87.146c 14.325,8.348, 30.958,13.127, 48.7,13.127
	c 53.598,0, 97.072-43.596, 97.35-97.479l 100.627,0 c-0.043,16.537, 4.136,33.285, 12.983,48.609
	c 26.818,46.453, 86.388,62.297, 133.207,35.506l 50.313,87.145C 488.222,147.494, 475.766,159.51, 466.895,174.875z M 256,120.334
	c-57.254,0-103.668,46.412-103.668,103.667c0,57.254, 46.413,103.667, 103.668,103.667c 57.254,0, 103.666-46.413, 103.666-103.667
	C 359.665,166.746, 313.254,120.334, 256,120.334z"  />
<glyph unicode="&#xe009;" d="M 508.605,23.081L 348.426,183.265c 20.803,31.012, 31.98,67.476, 31.98,105.656c0,50.806-19.784,98.57-55.711,134.497  C 288.768,459.341, 241.009,479.124, 190.203,479.124c-50.806,0-98.57-19.784-134.497-55.706C 19.784,387.492,0,339.727,0,288.922  s 19.784-98.565, 55.711-134.492s 83.686-55.711, 134.497-55.711c 38.61,0, 75.453,11.438, 106.691,32.691l 160.026-160.015  c 5.402-5.407, 15.334-4.229, 22.18,2.616l 26.89,26.89C 512.84,7.747, 514.012,17.679, 508.605,23.081z M 190.203,150.246  c-76.472,0-138.68,62.208-138.68,138.675s 62.213,138.68, 138.68,138.68c 76.467,0, 138.675-62.213, 138.675-138.68  S 266.67,150.246, 190.203,150.246z"  />
<glyph unicode="&#xe004;" d="M 337.997,64.63L 276.122,157.44L 81.92,157.44 L 81.92,387.84 l 348.16,0 l0-230.4 L 356.557,157.44 L 337.997,64.63z M 102.4,177.92l 184.678,0 l 40.525-60.79L 339.763,177.92L 409.6,177.92 L 409.6,367.36 L 102.4,367.36 L 102.4,177.92 z"  />
<glyph unicode="&#xe00d;" d="M 435.492,287.836l0-228.28 c0-8.315-6.733-15.048-15.048-15.048L 91.551,44.508 c-8.305,0-15.048,6.733-15.048,15.048L 76.508,388.449    c0,8.305, 6.738,15.048, 15.048,15.048l 276.127,0 l 25.539,38.641L 56.151,442.132 c-10.097,0-18.284-8.187-18.284-18.284l0-399.698 c0-10.102, 8.187-18.284, 18.284-18.284l 399.698,0    c 10.102,0, 18.284,8.187, 18.284,18.284L 474.132,346.296 L 435.492,287.836zM 487.726,443.049l-32.768,21.652c-8.422,5.571-20.695,1.848-27.407-8.305L 286.162,242.463  c-3.405-5.156-4.705-10.977-4.070-16.189l-4.7-33.961l-5.571-40.34l 34.924,20.946l 29.394,17.633c 5.048,1.459, 9.892,4.936, 13.302,10.097  l 141.389,213.934C 497.541,424.735, 496.154,437.484, 487.726,443.049z M 323.471,239.196c-5.78-8.75-12.406-14.546-14.802-12.959l-9.313,6.149  c-2.396,1.587, 0.343,9.953, 6.124,18.703l 121.708,184.161c 5.78,8.75, 12.411,14.546, 14.802,12.964l 9.313-6.159  c 2.396-1.582-0.348-9.953-6.124-18.693L 323.471,239.196z M 350.305,221.46c-5.78-8.745-12.411-14.546-14.797-12.959l-9.318,6.159  c-2.401,1.582, 0.343,9.953, 6.124,18.698l 121.713,184.161c 5.78,8.745, 12.406,14.546, 14.802,12.964l 9.313-6.159  c 2.396-1.582-0.348-9.953-6.124-18.693L 350.305,221.46zM 330.081,346.522c0-10.097-8.187-18.284-18.284-18.284l-192.148,0 c-10.097,0-18.284,8.187-18.284,18.284l0,10.465 c0,10.097, 8.187,18.284, 18.284,18.284l 192.148,0   c 10.102,0, 18.284-8.187, 18.284-18.284L 330.081,346.522 zM 282.455,273.249c0-10.097-6.482-18.284-14.479-18.284L 115.845,254.966 c-7.997,0-14.479,8.187-14.479,18.284l0,10.465   c0,10.097, 6.482,18.284, 14.479,18.284l 152.136,0 c 7.997,0, 14.479-8.187, 14.479-18.284L 282.455,273.249 zM 256,201.651c0-10.102-5.535-18.284-12.36-18.284L 113.731,183.368 c-6.83,0-12.36,8.187-12.36,18.284L 101.371,212.116 c0,10.097, 5.535,18.284, 12.36,18.284l 129.905,0   c 6.83,0, 12.36-8.187, 12.36-18.284L 255.995,201.651 zM 256,128.389c0-10.102-5.535-18.284-12.365-18.284L 113.731,110.1 c-6.83,0-12.36,8.187-12.36,18.284l0,10.465 c0,10.097, 5.535,18.284, 12.36,18.284  l 129.905,0 c 6.83,0, 12.365-8.187, 12.365-18.284L 256,128.389 z"  />
<glyph unicode="&#xe00c;" d="M 34.678,47.677L 34.678-32 l 442.639,0 L 477.317,47.677 L 34.678,47.677 z M 326.82-9.871c-9.774,0-17.705,7.926-17.705,17.71     c0,9.779, 7.931,17.705, 17.705,17.705c 9.779,0, 17.71-7.926, 17.71-17.705C 344.53-1.946, 336.599-9.871, 326.82-9.871z M 379.94-9.871     c-9.779,0-17.705,7.926-17.705,17.71c0,9.779, 7.926,17.705, 17.705,17.705c 9.774,0, 17.705-7.926, 17.705-17.705     C 397.645-1.946, 389.714-9.871, 379.94-9.871z M 433.055-9.871c-9.774,0-17.705,7.926-17.705,17.71c0,9.779, 7.931,17.705, 17.705,17.705     c 9.779,0, 17.705-7.926, 17.705-17.705C 450.76-1.946, 442.834-9.871, 433.055-9.871zM 214.676,173.087c-9.052,0-16.42,7.363-16.42,16.415L 198.257,340.111 l-44.293,0 c-6.451,0-11.873,3.379-14.52,9.016     c-2.836,6.052-1.843,13.348, 2.54,18.596L 244.009,474.348C 247.035,477.993, 251.095,480, 255.447,480c 0.179,0, 0.927,0, 1.106,0     c 4.337,0, 8.397-2.007, 11.433-5.647l 97.608-106.639c 4.372-5.238, 5.371-12.534, 2.534-18.586c-2.647-5.642-8.069-9.016-14.52-9.016l-39.869,0      l0-150.61 c0-9.052-7.363-16.415-16.415-16.415L 214.676,173.087 zM 406.497,308.833L 346.967,308.833 l0-129.418 c0-17.751-14.444-32.2-32.2-32.2L 197.233,147.215 c-17.751,0-32.2,14.449-32.2,32.2L 165.033,308.833 L 105.503,308.833       L 34.678,65.382l 442.639,0 L 406.497,308.833z"  />
<glyph unicode="&#xe008;" d="M 411.54,208.957l 25.093,31.621l 22.39-28.385L 506.88,151.711l-47.857,0 l0-34.642 c0-28.759-23.45-52.209-52.204-52.209      L 70.979,64.86 c-28.754,0-52.204,23.45-52.204,52.209L 18.775,333.686 c0,28.759, 23.45,52.209, 52.204,52.209l 335.841,0       c 28.754,0, 52.204-23.45, 52.204-52.209l0-28.17 l-47.483,0 l0,28.17 c0,2.601-2.068,4.777-4.721,4.777L 70.979,338.463       c-2.55,0-4.777-2.176-4.777-4.777l0-216.622 c0-2.657, 2.227-4.726, 4.777-4.726l 335.841,0 c 2.652,0, 4.721,2.068, 4.721,4.726l0,34.642       L 366.285,151.706 L 411.54,208.957zM 292.639,239.468L 362.266,139.331L 223.058,139.331L 223.35,139.684L 75.505,139.684L 193.403,299.167L 265.989,201.052 zM 332.657,301.85c 14.326,0, 25.882-11.612, 25.882-25.882c0-14.28-11.556-25.887-25.882-25.887c-14.326,0-25.882,11.607-25.882,25.887  C 306.775,290.237, 318.331,301.85, 332.657,301.85z"  />
<glyph unicode="&#xe002;" d="M0,480.182L 677.161,480.182L 677.161,382.236L0,382.236zM0,271.599L 677.161,271.599L 677.161,173.653L0,173.653zM0,65.762L 677.161,65.762L 677.161-32.184L0-32.184z" horiz-adv-x="677.161"  />
<glyph unicode="&#xe001;" d="M 483.74,480L 28.262,480 C 12.65,480, 0.002,467.35, 0.002,451.74l0-455.484 c0-15.606, 12.648-28.258, 28.26-28.258l 245.215,0 
	L 273.477,166.273 l-66.722,0 l0,77.272 l 66.722,0 L 273.477,300.531 c0,66.131, 40.388,102.14, 99.382,102.14c 28.258,0, 52.545-2.104, 59.625-3.045l0-69.11 l-40.918-0.019
	c-32.083,0-38.294-15.245-38.294-37.617l0-49.335 l 76.517,0 l-9.965-77.272l-66.554,0 l0-198.271 l 130.471,0 c 15.604,0, 28.258,12.654, 28.258,28.258L 512,451.74 
	C 511.998,467.35, 499.344,480, 483.74,480z"  />
<glyph unicode="&#xe005;" d="M 341.018,34.703L 263.951,142.080L 143.36,142.080 c-42.348,0-76.8,34.452-76.8,76.8L 66.56,326.4 c0,42.348, 34.452,76.8, 76.8,76.8l 225.28,0 c 42.348,0, 76.8-34.452, 76.8-76.8l0-107.52   c0-42.348-34.452-76.8-76.8-76.8l-9.062,0 L 341.018,34.703z M 143.36,372.48c-25.405,0-46.080-20.675-46.080-46.080l0-107.52 c0-25.411, 20.675-46.080, 46.080-46.080l 136.351,0 l 43.52-60.636L 333.711,172.8L 368.64,172.8   c 25.411,0, 46.080,20.669, 46.080,46.080L 414.72,326.4 c0,25.405-20.669,46.080-46.080,46.080L 143.36,372.48 z"  />
<glyph unicode="&#xe003;" d="M 512,151.229c0,41.045-28.339,75.45-66.498,84.74C 443.881,300.319, 391.273,352, 326.571,352
	c-37.896,0-71.633-17.747-93.427-45.366c-12.221,15.799-31.345,25.98-52.854,25.98c-36.905,0-66.821-29.937-66.821-66.861
	c0-3.218, 0.24-6.38, 0.682-9.477c-5.611,1.012-11.383,1.569-17.285,1.569C 43.367,257.846,0,214.452,0,160.924
	C0,107.393, 43.367,64, 96.865,64l 328.131,0 l0,0.006 C 473.065,64.098, 512,103.112, 512,151.229z"  />
<glyph unicode="&#xe00b;" d="M 260.7,58.010c 0.169,0.174, 0.031,0.317-0.317,0.317c-0.343,0-0.497-0.143-0.312-0.317   C 260.25,57.836, 260.526,57.836, 260.7,58.010 M 226.724-4.46c-7.828,7.849-20.664,20.669-28.498,28.503L 55.772,166.492   c-7.828,7.844-7.828,20.664,0,28.503l 19.415,19.415c 7.839,7.839, 20.675,7.839, 28.503,0l 104.883-104.883   c 7.839-7.839, 14.249-5.181, 14.249,5.903l0,346.373 c0,11.085, 9.073,20.163, 20.152,20.163l 34.831,0 c 11.085,0, 20.163-9.078, 20.163-20.163L 297.969,115.43    c0-11.085, 6.41-13.737, 14.244-5.903L 417.096,214.415c 7.844,7.839, 20.675,7.839, 28.503,0l 19.415-19.415c 7.834-7.839, 7.834-20.659,0-28.503   L 322.555,24.033c-7.844-7.834-20.669-20.654-28.503-28.503l-19.42-19.41c-7.828-7.844-20.654-7.844-28.493,0L 226.724-4.46z"  />
<glyph unicode="&#xe00e;" d="M 260.7,392.233c 0.169-0.174, 0.031-0.317-0.317-0.317c-0.343,0-0.497,0.143-0.312,0.317   C 260.25,392.407, 260.526,392.407, 260.7,392.233 M 226.724,454.702c-7.828-7.849-20.664-20.669-28.498-28.503L 55.772,283.75   c-7.828-7.844-7.828-20.664,0-28.503l 19.415-19.415c 7.839-7.839, 20.675-7.839, 28.503,0l 104.883,104.883   c 7.839,7.839, 14.249,5.181, 14.249-5.903l0-346.373 c0-11.085, 9.073-20.163, 20.152-20.163l 34.831,0 c 11.085,0, 20.163,9.078, 20.163,20.163L 297.969,334.812    c0,11.085, 6.41,13.737, 14.244,5.903L 417.096,235.827c 7.844-7.839, 20.675-7.839, 28.503,0l 19.415,19.415c 7.834,7.839, 7.834,20.659,0,28.503   L 322.555,426.209c-7.844,7.834-20.669,20.654-28.503,28.503l-19.42,19.41c-7.828,7.844-20.654,7.844-28.493,0L 226.724,454.702z"  />
<glyph unicode="&#xe006;" d="M 512,300.922 C 512,257.741 493.391,218.907 463.755,192 L 464,192 L 304,32 C 288,16 272,0 256,0 C 240,0 224,16 208,32 L 48,192 L 48.245,192 C 18.609,218.907 0,257.741 0,300.922 C 0,382.151 65.849,448 147.078,448 C 190.259,448 229.093,429.391 256,399.755 C 282.907,429.391 321.741,448 364.922,448 C 446.15,448 512,382.151 512,300.922 Z"  />
<glyph unicode="&#xe011;" d="M 512,300.922 C 512,257.741 493.391,218.907 463.755,192 L 464,192 L 304,32 C 288,16 272,0 256,0 C 240,0 224,16 208,32 L 48,192 L 48.245,192 C 18.609,218.907 0,257.741 0,300.922 C 0,382.151 65.849,448 147.078,448 C 174.803,448 200.729,440.318 222.864,426.982 L 176,352 L 288,288 L 224,128 L 400,320 L 288,384 L 327.446,443.17 C 339.412,446.314 351.969,448 364.922,448 C 446.15,448 512,382.151 512,300.922 Z"  />
<glyph unicode="&#xe012;" d="M 310.627,41.373l 160,160c 12.497,12.496, 12.497,32.758,0,45.255l-160,160c-12.497,12.496-32.758,12.496-45.255,0
	c-12.497-12.497-12.497-32.758,0-45.255L 370.745,256L 64,256 c-17.673,0-32-14.327-32-32s 14.327-32, 32-32l 306.745,0 L 265.372,86.627
	C 259.124,80.379, 256,72.189, 256,64s 3.124-16.379, 9.372-22.627C 277.869,28.876, 298.13,28.876, 310.627,41.373z"  />
<glyph unicode="&#xe013;" d="M 560.125,480.381L 560.125,377.046L 521.624,377.046L 521.624-32.114L 403.321-32.114L 159.363,283.728L 157.983,283.728L 157.983,70.019L 195.581,70.019L 195.581-34.038L-0.028-34.038L-0.028,69.68L 38.954,69.68L 38.954,375.964L0,375.964L0,480.381L 81.643,480.381L 81.643,480.259L 157.983,480.259L 401.965,160.090L 403.321,160.090L 403.321,480.259L 473.752,480.259L 473.752,480.381 	zM 747.887,327.794c-100.75,0-188.72-65.249-188.72-180.629c0-115.304, 88.569-179.861, 188.72-179.861
		c 100.819,0, 188.793,65.214, 188.793,179.861C 936.68,262.545, 848.706,327.794, 747.887,327.794z M 747.89,67.259
		c-48.007,0-75.935,34.743-75.935,79.893c0,43.776, 27.928,80.688, 75.935,80.688c 48.069,0, 76.025-36.912, 76.025-80.688
		C 823.915,101.999, 795.959,67.259, 747.89,67.259zM 1542.919,68.113l0-100.494 l-67.726,0 c-33.685,0-60.897,1.878-79.495,12.451
		c-40.656,22.909-47.277,62.208-49.45,94.696L 1346.252,376.178 l-38.137,0 L 1308.115,476.385 l 38.137,0 L 1346.252,476.499 l 115.504,0 l0-408.386 L 1542.919,68.113 zM 1320.749,330.316L 1141.438-32.031L 1087.395-32.031L 908.087,330.316L 1027.511,330.316L 1114.399,162.584L 1114.441,156.859L 1114.441,162.584L 1201.287,330.316 	z" horiz-adv-x="1542.919"  />
<glyph unicode="&#xe014;" d="M 251.938,507.511l 138.103-141.449l0-370.551 L -30.174-4.489 L -30.174,507.511 L 251.938,507.511 z M 30.481,56.132l 298.974,0 l0,289.69 l-108.646,0 l0,101.035 L 30.481,446.891 L 30.481,56.132 z
		 M 71.714,254.037l 213.914,0 l0,23.586 l-213.914,0 L 71.714,254.037 z M 71.714,186.658l 213.914,0 l0,23.586 l-213.914,0 L 71.714,186.658 z M 71.714,119.313l 213.914,0 l0,23.586 l-213.914,0 
		L 71.714,119.313 z" horiz-adv-x="409.6"  />
<glyph unicode="&#xe015;" d="M 128.859,168.342L 150.797,146.414L 258.369,253.799L 365.94,146.414L 387.879,168.342L 258.534,297.454L 258.369,297.294L 258.203,297.454 z" horiz-adv-x="517.172"  />
<glyph unicode="&#xe016;" d="M 128.859,275.531L 150.797,297.459L 258.369,190.074L 365.94,297.459L 387.879,275.531L 258.534,146.419L 258.369,146.579L 258.203,146.419 z" horiz-adv-x="517.172"  />
<glyph unicode="&#xe017;" d="M0,269.949L 743.932,269.949L 743.932,182.427L0,182.427zM0,480L 743.932,480L 743.932,392.479L0,392.479zM0,55.521L 743.932,55.521L 743.932-32L0-32z" horiz-adv-x="743.932"  />
<glyph unicode="&#xe018;" d="M 204.774,92.426L 182.846,114.365L 290.232,221.936L 182.846,329.508L 204.774,351.447L 333.886,222.102L 333.726,221.936L 333.886,221.771 z" horiz-adv-x="517.172"  />
<glyph unicode="&#xe019;" d="M 96,416L 416,224L 96,32 z"  />
<glyph unicode="&#xe007;" d="M 128,160L 128,64L 192,64L 96-32L0,64L 64,64L 64,160 		zM 64,288L 64,384L0,384L 96,480L 192,384L 128,384L 128,288 		z" horiz-adv-x="192"  />
<glyph unicode="&#xe01a;" d="M 256,448 C 397.385,448 512,354.875 512,240 C 512,125.124 397.385,32 256,32 C 242.422,32 229.095,32.867 216.088,34.522 C 161.099-20.467 95.463-30.328 32-31.776 L 32-18.318 C 66.268-1.529 96,29.052 96,64 C 96,68.877 95.621,73.665 94.918,78.348 C 37.020,116.48 0,174.725 0,240 C 0,354.875 114.615,448 256,448 Z"  />
<glyph unicode="&#xe01b;" d="M 311.953,92.426L 333.881,114.365L 226.495,221.936L 333.881,329.508L 311.953,351.447L 182.841,222.102L 183.001,221.936L 182.841,221.771 z" horiz-adv-x="517.172"  />
<glyph unicode="&#xe01c;" d="M 432,416L 192,176L 80,288L0,208L 192,16L 512,336 z"  />
<glyph unicode="&#x20;" horiz-adv-x="256" />
</font>
</defs>
</svg>
